<?xml version="1.0" encoding="UTF-8" standalone="no"?>
<!-- Created with Inkscape (http://www.inkscape.org/) -->

<svg
   width="210mm"
   height="297mm"
   viewBox="0 0 210 297"
   version="1.1"
   id="svg1"
   xml:space="preserve"
   xmlns="http://www.w3.org/2000/svg"
   xmlns:svg="http://www.w3.org/2000/svg"><defs
     id="defs1" /><g
     id="layer2"><path
       style="fill:#59b224;fill-opacity:1;stroke-width:13.229;stroke-linecap:round;stroke-linejoin:round;paint-order:stroke fill markers"
       d="m 73.875113,188.99906 -15.458828,15.50955 -19.969454,7.00918 21.518864,1.27551 1.918131,3.11338 h 4.482399 l 2.776413,4.29892 9.274858,-2.02399 4.444026,3.46931 2.658211,-2.33845 9.718995,6.498 3.333903,-3.80406 10.366899,-0.20156 2.48576,-6.86143 6.07592,-3.10984 -2.11793,-8.91805 -10.51465,0.25493 -1.43694,-5.97139 2.21628,-0.10188 -0.11159,-2.85184 -4.14455,-1.30551 -1.918131,1.00119 -7.174132,-3.41373 13.092153,-9.57522 -3.41021,-6.53107 -5.008129,-0.21347 -11.875733,8.82586 h -5.301869 z"
       id="path1" /><path
       style="fill:#fe0000;fill-opacity:1;stroke-width:13.229;stroke-linecap:round;stroke-linejoin:round;paint-order:stroke fill markers"
       d="m 116.59819,166.17928 4.65497,4.1485 -5.91679,32.53666 -10.47212,0.25625 -1.3884,-5.88451 2.19136,-0.13772 -0.072,-2.8804 -4.21481,-1.28598 -1.925004,0.98648 -7.127251,-3.3866 13.094605,-9.58692 -3.40081,-6.5485 -5.130809,-0.24274 10.541809,-2.78999 3.34387,2.80995 z"
       id="path2" /><path
       style="fill:#fef200;fill-opacity:1;stroke-width:13.229;stroke-linecap:round;stroke-linejoin:round;paint-order:stroke fill markers"
       d="m 88.639506,162.57637 1.616893,2.49348 8.061526,2.8472 -1.218624,6.27703 10.400859,-2.84896 3.23907,2.76252 5.80069,-8.06969 4.75909,4.30667 2.6194,-16.28959 -4.03248,-18.98197 -6.17908,9.96518 -1.31671,5.04949 -10.63321,1.25808 -4.147872,9.73846 z"
       id="path3" /><path
       style="fill:#fed883;fill-opacity:1;stroke-width:13.229;stroke-linecap:round;stroke-linejoin:round;paint-order:stroke fill markers"
       d="m 119.96483,134.90839 5.20823,-4.65247 3.93237,10.16634 h 2.01218 l 0.97116,-3.93487 1.98038,1.22939 -0.0798,2.09015 4.31753,-2.7984 1.3189,2.37395 2.61316,0.0458 3.27557,3.44305 1.55467,5.05323 -1.02886,1.52193 1.07096,1.93421 -3.33701,3.05414 1.00048,1.87933 -2.53113,5.02828 1.63856,1.62173 -1.67661,2.29224 -10.27362,6.38273 -1.55655,2.92565 -2.45909,0.2838 -1.5213,7.26221 -2.09764,0.99455 -2.66056,-0.70794 -0.23952,2.09576 -2.70485,0.93717 5.32612,-31.36881 z"
       id="path4" /><path
       style="fill:#ffb402;fill-opacity:1;stroke-width:13.229;stroke-linecap:round;stroke-linejoin:round;paint-order:stroke fill markers"
       d="m 115.45613,127.39545 10.62977,-2.5012 8.09584,-8.15259 6.49375,11.6025 2.02809,1.77329 2.1912,6.42078 6.44542,7.2254 -2.14754,2.28819 -1.56559,-0.13785 -0.66522,1.8313 -1.49198,-5.06632 -3.3395,-3.19823 -2.33154,-0.16092 -1.58804,-2.34277 -3.9542,2.51149 -0.22268,-1.72682 -2.02435,-1.35134 -1.20319,4.05369 h -1.75708 l -3.9149,-10.22341 -5.24503,4.69457 z"
       id="path5" /><path
       style="fill:#99a843;fill-opacity:1;stroke-width:13.229;stroke-linecap:round;stroke-linejoin:round;paint-order:stroke fill markers"
       d="m 133.53516,114.41606 7.39951,14.07834 2.22069,1.75009 1.66761,6.01549 6.7666,7.27071 2.62778,-3.9496 5.41081,-2.26832 2.49018,-4.31921 -2.19996,-1.25612 2.02574,-7.41538 -0.9981,-1.38358 2.85978,-9.17606 -2.11749,-3.49312 -2.43195,-0.96502 9.78824,-17.232737 -1.8877,-1.960911 0.37622,2.830224 -5.56518,7.952144 -5.15544,-0.87152 -7.16576,2.72305 -2.72128,5.1034 -5.05444,0.67304 -3.63514,3.89977 z"
       id="path6" /><path
       style="fill:#8dbedc;fill-opacity:1;stroke-width:13.229;stroke-linecap:round;stroke-linejoin:round;paint-order:stroke fill markers"
       d="m 141.16181,108.9951 -2.58897,3.23599 -5.13691,2.17747 1.36505,2.51487 -4.33421,2.81567 -4.29495,4.6919 -11.0986,2.76759 c 0,0 -7.99184,-13.06745 -9.37012,-12.57965 -1.37828,0.4878 4.02018,-6.81776 4.02018,-6.81776 l 1.61997,1.98605 1.61601,-0.42429 4.31701,-9.25766 5.29084,0.79213 2.96916,-4.283484 z"
       id="path7" /><path
       style="fill:#fa807d;fill-opacity:1;stroke-width:13.229;stroke-linecap:round;stroke-linejoin:round;paint-order:stroke fill markers"
       d="m 105.26072,114.50823 4.4921,-6.87641 1.60102,2.18099 1.91063,-0.62364 3.97872,-9.264719 5.27099,0.863139 9.97481,-17.278164 -8.99215,-1.362406 -5.56385,5.261295 -1.10968,4.118531 -5.79497,3.434021 -7.27777,-4.740415 -0.65055,-2.35168 0.43223,-4.12559 -2.76098,-1.70466 -3.762165,-9.019047 -7.118117,4.048405 2.914462,5.835544 -2.369323,4.375221 4.690131,2.854921 0.609534,3.294208 1.941063,-0.515589 0.995892,2.6269 4.557383,2.134243 -0.95135,2.617642 -0.20156,11.85059 z"
       id="path8" /><path
       style="fill:#4ea070;fill-opacity:1;stroke-width:13.229;stroke-linecap:round;stroke-linejoin:round;paint-order:stroke fill markers"
       d="m 86.205223,80.171786 3.68287,-3.179201 2.669297,5.412502 -2.361168,5.048554 4.560787,2.35867 1.196019,3.551264 1.437098,-0.568851 1.356947,2.949667 4.759447,1.938266 -1.37254,2.741963 -0.19586,11.71383 c 0,0 -9.549357,-2.6378 -18.533803,-5.00239 -7.67387,-2.01966 -9.483965,-5.67727 -9.483965,-5.67727 l 1.506643,-2.185905 2.248895,-0.630912 0.378298,-2.712646 2.255756,-2.321872 0.02588,-10.791325 0.692039,-2.876063 -0.279749,-2.429155 1.912699,-0.755661 z"
       id="path9" /><path
       style="fill:#095fa8;fill-opacity:1;stroke-width:13.229;stroke-linecap:round;stroke-linejoin:round;paint-order:stroke fill markers"
       d="m 73.816455,101.61235 0.62982,14.13788 -3.136313,-0.23464 -2.202606,3.03355 1.315212,5.07605 -1.102627,6.71059 -3.970338,4.27775 5.628249,2.32258 0.217437,3.51516 1.208479,5.64898 5.326129,1.83125 6.282769,-8.27853 4.689692,-2.07469 1.967968,1.80919 11.422334,-8.75221 13.40617,-3.13146 c 0,0 -7.74964,-13.51264 -13.90236,-15.63305 -9.36449,-3.22728 -20.172334,-4.84759 -20.172334,-4.84759 z"
       id="path10" /><path
       style="fill:#73c8cb;fill-opacity:1;stroke-width:13.229;stroke-linecap:round;stroke-linejoin:round;paint-order:stroke fill markers"
       d="m 77.958359,147.88872 -0.950463,4.29583 2.775972,1.36947 2.378146,3.44108 2.767595,-1.52692 1.881523,1.65261 -1.501778,5.37244 12.512609,-1.45149 4.025467,-9.8372 10.70078,-1.3408 1.35667,-5.58723 6.04416,-9.32204 -4.34038,-7.46611 -13.26946,3.31891 -11.563022,8.46332 -2.361385,-1.78626 -4.42771,2.00061 z"
       id="path11" /></g></svg>
